<svg xmlns="http://www.w3.org/2000/svg" viewBox="0 0 200 200" width="200" height="200">
  <!-- Outer Ring -->
  <circle cx="100" cy="100" r="92" fill="none" stroke="#162a45" stroke-width="9" />
  
  <!-- Top Filled Navy Dome -->
  <path d="M 28 86 A 74 74 0 0 1 172 86 Z" fill="#162a45" />

  <!-- Bottom Filled Navy Dome -->
  <path d="M 28 114 A 74 74 0 0 0 172 114 Z" fill="#162a45" />

  <!-- Center Solid Navy Horizontal Band -->
  <rect x="22" y="88" width="156" height="24" fill="#162a45" />

  <!-- White Letter S -->
  <path d="M 42 93 H 74 V 97 H 52 V 99 H 74 V 107 H 42 V 103 H 64 V 101 H 42 Z" fill="#ffffff" />

  <!-- White Letter B -->
  <path d="M 82 93 H 110 C 116 93 118 95 118 97.5 C 118 99 116 100 110 100 C 116 100 119 101 119 103.5 C 119 106 116 107 110 107 H 82 Z M 91 95.5 V 98.5 H 106 C 108 98.5 109 98 109 97 C 109 96 108 95.5 106 95.5 Z M 91 101.5 V 104.5 H 106 C 108 104.5 109 104 109 103 C 109 102 108 101.5 106 101.5 Z" fill="#ffffff" />

  <!-- White Letter F -->
  <path d="M 126 93 H 158 V 97 H 136 V 99.5 H 154 V 102.5 H 136 V 107 H 126 Z" fill="#ffffff" />
</svg>
